<?xml version="1.0" encoding="utf-8"?>
<!-- Generator: Adobe Illustrator 24.3.0, SVG Export Plug-In . SVG Version: 6.00 Build 0)  -->
<svg version="1.1" id="Calque_1" xmlns="http://www.w3.org/2000/svg" xmlns:xlink="http://www.w3.org/1999/xlink" x="0px" y="0px"
	 viewBox="0 0 432 432" style="enable-background:new 0 0 432 432;" xml:space="preserve">
<style type="text/css">
	.st0{fill:#688755;}
	.st1{fill:#A02B2B;}
	.st2{fill:#9E2828;}
	.st3{fill:#333333;}
	.st4{fill:#BECE56;}
	.st5{fill:#F59DAB;}
	.st6{fill:#57C4C1;}
	.st7{fill:#F2D969;}
	.st8{fill:#B76C7B;}
	.st9{fill:#D6A8A3;}
	.st10{fill:#D8AB50;}
	.st11{fill:#DD7373;}
	.st12{fill:#A3B4C1;}
	.st13{fill:#E28076;}
	.st14{fill:#998675;}
	.st15{fill:#736357;}
	.st16{fill:#CCCCCC;}
	.st17{fill:#E09F82;}
	.st18{fill:#D68778;}
	.st19{fill:#534741;}
	.st20{fill:#C69C6D;}
	.st21{fill:#C7B299;}
	.st22{fill:#BF4B4B;}
</style>
<g>
	<g>
		<path class="st11" d="M131.87,216.78c0.15-0.72,0.24-1.45,0.45-2.14c1.62-5.4,4.51-10,8.8-13.69c0.33-0.29,0.67-0.57,1.03-0.81
			c0.82-0.55,1.38-0.4,1.8,0.5c2.85,5.96,6.71,11.17,11.62,15.59c3.47,3.13,7.34,5.69,11.37,8.04c4.8,2.8,9.81,5.18,14.81,7.57
			c4.79,2.28,9.59,4.53,14.34,6.9c4.82,2.41,9.45,5.13,13.77,8.38c4.65,3.49,8.72,7.55,11.98,12.38c0.39,0.58,0.74,1.2,1.11,1.8
			c0.35,0.57,0.27,1.06-0.13,1.61c-2.78,3.8-5.75,7.43-8.95,10.89c-4.57,4.94-9.44,9.56-14.7,13.77c-0.11,0.09-0.23,0.19-0.34,0.27
			c-0.53,0.39-0.84,0.35-1.18-0.24c-0.18-0.31-0.29-0.67-0.41-1.01c-2.32-6.61-5.25-12.94-9.07-18.83
			c-3.95-6.1-8.8-11.39-14.29-16.13c-4.6-3.97-9.61-7.37-14.76-10.59c-3.61-2.26-7.23-4.5-10.8-6.82c-3.5-2.27-6.79-4.82-9.74-7.79
			c-2.1-2.11-3.98-4.41-5.63-6.89c-0.33-0.5-0.6-1.06-0.84-1.61C131.98,217.57,131.96,217.17,131.87,216.78z"/>
		<g>
			<path class="st22" d="M184,211.82c0.09-0.19,0.21-0.36,0.28-0.56c1.39-3.84,3.8-6.92,6.98-9.45c4.37-3.46,9.31-5.62,14.82-6.47
				c10.84-1.67,20.77,3.2,26.31,12.37c2.45,4.05,3.81,8.45,4.33,13.14c0.62,5.62-0.13,11.13-1.54,16.56
				c-1.84,7.07-4.74,13.69-8.6,19.89c-0.21,0.33-0.41,0.66-0.65,0.97c-0.44,0.55-0.92,0.56-1.42,0.04c-0.1-0.11-0.19-0.23-0.27-0.35
				c-4.37-6.45-10.02-11.56-16.51-15.8c-4.98-3.25-10.24-6.01-15.61-8.56c-5.51-2.62-11.04-5.22-16.53-7.91
				c-4.81-2.36-9.47-5-13.83-8.13c-6.54-4.69-11.6-10.64-15.11-17.88c-0.07-0.15-0.15-0.31-0.22-0.46
				c-0.45-0.98-0.27-1.56,0.71-1.99c2.05-0.92,4.18-1.62,6.41-1.91c7.22-0.95,13.88,0.64,20.03,4.46c2.58,1.6,4.92,3.49,6.8,5.91
				c1.26,1.63,2.28,3.39,3,5.32c0.11,0.28,0.27,0.55,0.4,0.82C183.85,211.83,183.92,211.83,184,211.82z"/>
			<path class="st22" d="M195.21,289.76c-0.07,0.43-0.25,0.77-0.55,1.04c-0.45,0.41-0.88,0.86-1.38,1.2
				c-2.88,1.95-5.78,3.87-8.67,5.81c-0.51,0.34-0.93,0.35-1.46,0.02c-13.85-8.54-25.93-19.08-35.96-31.93
				c-3.91-5-7.37-10.29-10.07-16.04c-2.45-5.22-4.33-10.63-5.41-16.3c-0.53-2.78-0.86-5.58-0.89-8.41
				c-0.01-0.46,0.01-0.93,0.09-1.38c0.11-0.67,0.54-0.84,1.11-0.47c0.22,0.15,0.42,0.34,0.58,0.55c4.09,5.32,9.2,9.5,14.79,13.12
				c3.78,2.45,7.62,4.79,11.43,7.19c4.87,3.07,9.56,6.37,13.9,10.16c8.55,7.46,15.03,16.41,19.4,26.87c0.92,2.2,1.75,4.44,2.58,6.67
				C194.93,288.47,195.04,289.12,195.21,289.76z"/>
		</g>
	</g>
	<g>
		<path class="st22" d="M185.26,202.51c4.99-6.82,6.46-15.49,5.63-23.76c-0.91-9.03-4.32-17.35-8.58-25.29
			c-4.58-8.53-9.98-16.61-13.93-25.47c-3.91-8.77-6.26-18.28-7.03-27.84c-0.86-10.72,0.24-21.51,3.31-31.82
			c0.61-2.05-2.59-2.93-3.2-0.88c-5.39,18.13-4.89,37.95,1.46,55.77c3.22,9.03,8.13,17.22,12.91,25.49c4.62,7.99,9.1,16.21,11,25.33
			c1.91,9.14,1.23,19.07-4.43,26.81C181.13,202.56,184.01,204.22,185.26,202.51L185.26,202.51z"/>
	</g>
	<g>
		<g>
			<path class="st22" d="M310.06,202.28c0.1-0.18,0.23-0.35,0.29-0.54c1.43-3.98,4.14-6.89,7.59-9.21c1.37-0.92,2.78-1.77,4.31-2.41
				c2.43-1.01,4.93-1.74,7.56-2.03c2.1-0.23,4.18-0.19,6.26,0.06c0.77,0.09,1.53,0.28,2.28,0.5c2.81,0.84,5.45,2.05,7.75,3.91
				c2.51,2.03,4.54,4.48,6.07,7.34c0.84,1.57,1.52,3.2,2.03,4.9c0.55,1.82,0.91,3.68,1.08,5.57c0.21,2.29,0.15,4.56-0.07,6.85
				c-0.25,2.58-0.75,5.1-1.43,7.58c-0.55,2.01-1.28,3.97-1.98,5.93c-0.87,2.45-2,4.79-3.23,7.08c-1.25,2.33-2.64,4.58-4.16,6.75
				c-4.92,7.06-10.7,13.36-17.11,19.08c-3.3,2.94-6.77,5.67-10.41,8.18c-2.06,1.42-4.17,2.75-6.25,4.15
				c-0.47,0.32-0.86,0.31-1.34,0.01c-4.97-3.1-9.75-6.47-14.24-10.24c-5.62-4.71-10.76-9.9-15.36-15.62
				c-2.29-2.83-4.43-5.77-6.35-8.87c-1.58-2.56-2.99-5.22-4.19-7.98c-0.93-2.12-1.73-4.27-2.43-6.47c-0.82-2.57-1.44-5.2-1.82-7.87
				c-0.34-2.43-0.59-4.88-0.38-7.35c0.19-2.18,0.5-4.34,1.12-6.45c0.94-3.24,2.38-6.2,4.48-8.83c2.26-2.84,4.99-5.06,8.34-6.51
				c1.5-0.65,3.03-1.18,4.63-1.5c2.04-0.41,4.11-0.44,6.18-0.3c2.39,0.16,4.7,0.74,6.95,1.53c2.44,0.86,4.66,2.16,6.74,3.68
				c2.02,1.48,3.78,3.22,5.06,5.37c0.59,0.99,1.04,2.07,1.55,3.12c0.09,0.19,0.18,0.38,0.28,0.56
				C309.92,202.27,309.99,202.27,310.06,202.28z M337.89,219.55c-0.03-1.68-0.23-3.47-0.75-5.2c-0.81-2.73-2.1-5.18-4.28-7.1
				c-1.4-1.23-2.99-2.07-4.86-2.35c-2.28-0.35-4.4,0.13-6.44,1.13c-2.71,1.33-4.83,3.34-6.61,5.73c-1.69,2.27-3.19,4.66-4.43,7.2
				c-0.19,0.39-0.42,0.78-0.7,1.1c-0.47,0.53-1.07,0.44-1.44-0.17c-0.16-0.27-0.28-0.56-0.42-0.85c-1.43-2.94-3.17-5.7-5.23-8.25
				c-1.85-2.29-4.08-4.1-6.84-5.21c-4.11-1.65-8.1-0.76-11.14,2.47c-0.99,1.06-1.78,2.25-2.4,3.56c-1.82,3.84-2.16,7.84-1.38,11.98
				c0.69,3.6,2.06,6.94,3.81,10.14c3.12,5.72,7.23,10.66,11.97,15.1c3.56,3.34,7.47,6.25,11.28,9.27c0.81,0.64,1.11,0.62,1.96,0.05
				c2.63-1.77,5.16-3.66,7.58-5.7c4.05-3.41,7.89-7.03,11.14-11.23c2.94-3.79,5.45-7.83,7.2-12.31
				C337.08,225.95,337.83,222.89,337.89,219.55z"/>
			<path class="st11" d="M309.21,255.08c-0.64-0.47-1.27-0.92-1.89-1.39c-4.41-3.34-8.63-6.91-12.37-11
				c-4.03-4.42-7.38-9.3-9.59-14.9c-0.95-2.41-1.62-4.9-1.72-7.51c-0.12-2.94,0.45-5.72,1.96-8.26c0.47-0.79,1.05-1.53,1.69-2.18
				c1.97-1.99,4.34-2.48,6.98-1.61c1.77,0.58,3.29,1.59,4.61,2.88c0.73,0.71,1.41,1.48,2.03,2.29c2.39,3.1,4.3,6.49,5.71,10.14
				c0.36,0.93,0.73,1.86,1.08,2.79c0.28,0.75,0.78,1.15,1.51,1.16c0.76,0.01,1.27-0.38,1.56-1.18c1.31-3.49,2.69-6.95,4.79-10.06
				c0.97-1.43,1.99-2.83,3.08-4.17c1.21-1.49,2.74-2.62,4.48-3.44c1.53-0.72,3.13-1.04,4.82-0.67c1.25,0.27,2.29,0.94,3.2,1.81
				c1.58,1.51,2.51,3.39,3.1,5.46c0.89,3.08,0.73,6.16-0.07,9.23c-0.95,3.64-2.57,6.97-4.54,10.16c-2.69,4.36-5.99,8.21-9.72,11.71
				c-3.17,2.97-6.51,5.71-10.01,8.27C309.68,254.76,309.46,254.9,309.21,255.08z"/>
		</g>
		<g>
			<path class="st22" d="M311.05,188.8c3.81-6.42,4.15-14.06,2.69-21.23c-1.55-7.62-5.27-14.55-8.76-21.42
				c-3.65-7.18-6.69-14.44-8.28-22.38c-1.57-7.84-1.92-15.87-1.64-23.84c0.32-9.27,1.49-18.48,2.81-27.64
				c0.13-0.89-0.22-1.77-1.16-2.04c-0.78-0.22-1.91,0.27-2.04,1.16c-2.28,15.82-4.24,31.94-2.06,47.89
				c1.08,7.9,3.28,15.48,6.64,22.71c3.34,7.19,7.56,14.03,10.01,21.61c2.47,7.63,3.17,16.38-1.08,23.52
				C307.09,188.96,309.96,190.63,311.05,188.8L311.05,188.8z"/>
		</g>
	</g>
	<g>
		<g>
			<path class="st22" d="M257.66,293.34c0.1-0.21,0.21-0.42,0.29-0.64c1.07-2.8,2.84-5.07,5.21-6.88c0.82-0.63,1.72-0.81,2.75-0.64
				c4.78,0.79,8.95,2.8,12.62,5.99c5.62,4.88,9.21,10.94,11,18.11c1.06,4.22,1.33,8.5,0.87,12.83c-0.17,1.63-0.65,3.19-1.09,4.76
				c-0.44,1.58-1.21,2.94-2.16,4.25c-6,8.32-13.16,15.48-21.42,21.55c-2.41,1.77-4.95,3.36-7.41,5.06
				c-0.53,0.36-0.96,0.37-1.52,0.02c-5.59-3.52-10.9-7.42-15.76-11.91c-0.09-0.08-0.17-0.18-0.26-0.26
				c-0.16-0.15-0.4-0.31-0.22-0.53c0.11-0.14,0.37-0.23,0.56-0.23c0.26,0,0.52,0.1,0.77,0.18c3.43,1.16,6.95,1.89,10.56,2.12
				c1.36,0.09,2.72,0.15,4.09,0.14c8.04-0.08,14.04-3.74,18.2-10.52c1.54-2.51,2.58-5.23,3.08-8.15c0.57-3.34,0.21-6.6-0.86-9.79
				c-1.59-4.76-4.3-8.75-8.16-11.97c-3.17-2.65-6.82-4-10.94-4.05c-4.44-0.05-8.48,1.26-11.91,4.08c-4.41,3.63-6.58,8.43-6.07,14.11
				c0.52,5.8,3.58,10.1,8.86,12.68c2.42,1.18,5,1.17,7.58,0.6c3.38-0.74,6.28-2.33,8.48-5.06c1.57-1.95,2.34-4.14,2.06-6.65
				c-0.22-1.93-0.94-3.68-2.21-5.16c-2.08-2.42-5.54-3.11-8.3-1.68c-1.4,0.73-2.39,1.83-2.83,3.36c-0.08,0.27-0.12,0.58-0.1,0.86
				c0.04,0.64,0.51,1.14,1.14,1.25c0.57,0.11,1.17-0.19,1.46-0.75c0.06-0.11,0.1-0.22,0.14-0.34c0.54-1.57,1.83-2.44,3.46-2.31
				c1.31,0.11,2.4,0.66,3.15,1.74c1.6,2.3,1.98,5.22-0.07,7.78c-1.95,2.45-4.55,3.75-7.57,4.3c-4.02,0.74-7.11-0.91-9.56-3.91
				c-4.14-5.07-3.72-11.19-0.32-16.04c2.11-3.02,5.12-4.72,8.62-5.61c2.99-0.76,5.93-0.58,8.84,0.42c1.07,0.37,2.06,0.89,2.97,1.54
				c5,3.59,8.1,8.41,9.3,14.43c0.46,2.32,0.37,4.65-0.22,6.95c-0.79,3.09-2.14,5.9-4.17,8.37c-3.38,4.11-7.73,6.41-13.06,6.66
				c-5.08,0.23-10.06-0.45-14.87-2.16c-3.12-1.1-6.04-2.62-8.58-4.76c-4.49-3.78-7.34-8.58-8.64-14.3
				c-1.84-8.12-0.7-15.82,3.29-23.1c1.85-3.36,4.42-6.16,7.22-8.76c2.04-1.9,4.27-3.55,6.68-4.94c1.5-0.87,3.08-1.55,4.74-2.06
				c1.15-0.35,2.18-0.21,3.19,0.47c2.08,1.41,3.91,3.07,5.23,5.22c0.49,0.8,0.86,1.68,1.28,2.53c0.12,0.25,0.23,0.51,0.34,0.77
				C257.52,293.34,257.59,293.34,257.66,293.34z"/>
			<path class="st22" d="M277.3,280.72c7,0.25,12.39,3.19,16.22,8.92c1.86,2.79,2.96,5.89,3.48,9.19c0.37,2.37,0.42,4.73,0.2,7.13
				c-0.39,4.1-1.43,8.02-2.85,11.86c-0.02,0.05-0.02,0.1-0.04,0.14c-0.11,0.25-0.24,0.53-0.56,0.47c-0.31-0.06-0.26-0.37-0.28-0.6
				c-0.08-1.19-0.11-2.39-0.24-3.57c-1.14-10.67-5.66-19.51-14.11-26.26c-2.68-2.14-5.62-3.74-8.91-4.71
				c-0.33-0.1-0.74-0.17-0.75-0.58c-0.01-0.43,0.41-0.61,0.74-0.71c1.14-0.34,2.28-0.69,3.45-0.9
				C274.88,280.88,276.15,280.83,277.3,280.72z"/>
			<path class="st22" d="M217.77,303.6c-0.02-5.01,1.01-9.31,3.36-13.25c2.59-4.33,6.29-7.3,11.12-8.81
				c2.01-0.63,4.09-0.83,6.2-0.76c1.66,0.06,3.29,0.3,4.9,0.72c0.09,0.02,0.19,0.05,0.28,0.09c0.28,0.12,0.54,0.28,0.56,0.61
				c0.02,0.34-0.27,0.43-0.52,0.54c-2.34,1.05-4.49,2.44-6.53,3.99c-3.38,2.56-6.32,5.56-8.85,8.96c-3.18,4.29-5.05,9.13-5.96,14.36
				c-0.46,2.65-0.62,5.32-0.46,8c0.02,0.26,0.16,0.61-0.26,0.73c-0.3,0.09-0.51-0.05-0.68-0.51c-0.77-2.07-1.47-4.16-2-6.31
				c-0.49-2.01-0.84-4.04-1.04-6.1C217.8,304.96,217.79,304.06,217.77,303.6z"/>
		</g>
		<g>
			<path class="st22" d="M258.82,284.48c1.82-24.79-3.34-49.3-8.05-73.49c-2.39-12.29-4.62-24.6-5.98-37.05
				c-1.37-12.51-2.02-25.09-1.97-37.67c0.06-14.2,1.04-28.39,2.91-42.47c0.12-0.9-0.85-1.65-1.66-1.66
				c-0.99-0.01-1.54,0.77-1.66,1.66c-3.31,24.95-3.8,50.25-1.43,75.31c1.18,12.43,3.15,24.74,5.48,37
				c2.33,12.21,4.89,24.39,6.78,36.68c2.12,13.78,3.29,27.75,2.26,41.69C255.34,286.61,258.66,286.6,258.82,284.48L258.82,284.48z"
				/>
		</g>
	</g>
	<g>
		<path class="st11" d="M115.7,303.9c0.21-0.46,0.32-0.68,0.41-0.91c0.77-2.01,1.93-3.78,3.49-5.25c4.82-4.53,10.57-6.78,17.17-6.26
			c6.27,0.49,11.08,3.66,14.45,8.95c2.18,3.43,3.27,7.23,3.48,11.28c0.33,6.12-1.18,11.87-3.43,17.48
			c-2.59,6.43-6.46,12.06-10.91,17.32c-6.78,8.01-14.69,14.71-23.56,20.29c-0.81,0.51-1.38,0.54-2.21,0.02
			c-11.21-7.06-20.85-15.8-28.49-26.67c-4.13-5.87-7.1-12.28-8.64-19.31c-1.07-4.86-1.29-9.73,0.1-14.58
			c1.2-4.18,3.33-7.78,6.71-10.55c4.11-3.38,8.86-4.75,14.15-4.17c4.47,0.49,8.44,2.17,11.95,4.97c2.17,1.74,3.83,3.86,4.87,6.45
			C115.33,303.21,115.47,303.45,115.7,303.9z M137.29,310.73c-0.21-0.23-0.31-0.3-0.34-0.39c-0.09-0.27-0.16-0.55-0.24-0.82
			c-0.58-2.04-1.43-3.91-3.32-5.1c-1.68-1.05-3.35-0.75-4.54,0.84c-0.28,0.37-0.5,0.79-0.69,1.21c-0.58,1.3-0.77,2.68-0.72,4.09
			c0.14,4.17,1.38,8.03,3.38,11.66c0.21,0.37,0.46,0.73,0.73,1.06c1,1.18,2.05,1.44,3.44,0.72c3.25-1.69,6.41-3.54,8.97-6.22
			c0.83-0.87,1.55-1.88,2.17-2.91c0.6-0.99,0.84-2.13,0.74-3.31c-0.29-3.44-3.32-5.35-6.37-3.56c-0.88,0.52-1.64,1.26-2.44,1.92
			C137.8,310.14,137.58,310.42,137.29,310.73z"/>
		<g>
			<path class="st22" d="M116.54,293.2c-9.11-27.43-7.09-56.72-4.89-85.07c1.15-14.77,2.17-29.54,2.61-44.35
				c0.46-15.33,0.43-30.68-0.09-46.02c-0.58-17.16-1.77-34.3-3.55-51.37c-0.22-2.1-3.54-2.13-3.32,0
				c3.19,30.52,4.46,61.23,3.78,91.91c-0.34,15.1-1.22,30.16-2.39,45.21c-1.12,14.35-2.3,28.73-2.23,43.13
				c0.08,16.03,1.8,32.16,6.87,47.43C114.01,296.1,117.21,295.23,116.54,293.2L116.54,293.2z"/>
		</g>
	</g>
</g>
</svg>
