<svg width="427.617529296875px" height="121.38359375px" xmlns="http://www.w3.org/2000/svg" viewBox="36.19123535156251 14.308203124999999 427.617529296875 121.38359375" style="background-color: rgba(0, 0, 0, 0);" preserveAspectRatio="xMidYMid"><defs><filter id="editing-extrude-glow"><feFlood flood-color="#333333" result="flood-1"></feFlood><feMorphology operator="erode" radius="1" in="SourceAlpha" result="erode"></feMorphology><feComposite operator="in" in="flood-1" in2="erode" result="comp1"></feComposite><feConvolveMatrix order="3,3" divisor="1" in="comp1" result="convolve" kernelMatrix="0 0 0 1 1 1 0 0 0"></feConvolveMatrix><feOffset dx="-3" dy="0" in="convolve" result="extrude"></feOffset><feComposite operator="in" in="flood-1" in2="extrude" result="comp-extrude"></feComposite><feFlood flood-color="rgba(20%,20%,20%,0)" result="flood-2"></feFlood><feComposite operator="in" in="flood-2" in2="SourceAlpha" result="comp2"></feComposite><feMorphology operator="dilate" radius="1" in="comp2" result="dilate"></feMorphology><feOffset dx="-4.5" dy="0" in="dilate" result="offset"></feOffset><feGaussianBlur in="offset" stdDeviation="5.8" result="blur"></feGaussianBlur><feComponentTransfer in="blur" result="shadow"><feFuncA type="linear" slope="0.8" intercept="-0.2"></feFuncA></feComponentTransfer><feMerge><feMergeNode in="shadow"></feMergeNode><feMergeNode in="comp-extrude"></feMergeNode><feMergeNode in="SourceGraphic"></feMergeNode></feMerge></filter></defs><g filter="url(#editing-extrude-glow)"><g transform="translate(98.73500299453735, 104.76781272888184)"><path d="M2.69-39.68L2.69-39.68L2.69-39.68Q3.58-41.47 5.54-42.46L5.54-42.46L5.54-42.46Q7.49-43.46 10.18-43.46L10.18-43.46L10.18-43.46Q14.40-43.46 16.93-40.42L16.93-40.42L16.93-40.42Q19.46-37.38 19.46-30.72L19.46-30.72L19.46-7.87L34.11-42.18L41.66-42.18L43.39-9.79L43.20-7.94L58.43-42.18L67.20-42.18L46.72 0L33.09 0L31.81-19.46L23.36 0L7.94 0L6.02-30.72L6.02-30.72Q5.82-34.18 4.90-36.45L4.90-36.45L4.90-36.45Q3.97-38.72 2.69-39.68ZM79.81-3.52L79.81-3.52L79.81-3.52Q77.82 1.28 71.49 1.28L71.49 1.28L71.49 1.28Q68.22 1.28 66.18-0.96L66.18-0.96L66.18-0.96Q64.45-2.94 64.45-4.93L64.45-4.93L64.45-4.93Q64.45-10.11 66.82-20.22L66.82-20.22L69.18-32.64L82.18-33.92L78.27-13.70L78.27-13.70Q77.18-8.96 77.18-7.30L77.18-7.30L77.18-7.30Q77.18-3.65 79.81-3.52ZM70.34-41.54L70.34-41.54L70.34-41.54Q70.34-44.03 72.42-45.38L72.42-45.38L72.42-45.38Q74.50-46.72 77.50-46.72L77.50-46.72L77.50-46.72Q80.51-46.72 82.34-45.38L82.34-45.38L82.34-45.38Q84.16-44.03 84.16-41.54L84.16-41.54L84.16-41.54Q84.16-39.04 82.14-37.76L82.14-37.76L82.14-37.76Q80.13-36.48 77.12-36.48L77.12-36.48L77.12-36.48Q74.11-36.48 72.22-37.76L72.22-37.76L72.22-37.76Q70.34-39.04 70.34-41.54ZM112.32 1.28L112.32 1.28L112.32 1.28Q104.58 1.28 104.58-4.74L104.58-4.74L104.58-4.74Q104.64-6.40 105.15-9.22L105.15-9.22L106.30-15.10L106.30-15.10Q108.03-23.42 108.03-25.28L108.03-25.28L108.03-25.28Q108.03-28.99 105.86-28.99L105.86-28.99L105.86-28.99Q102.21-28.99 100.29-19.46L100.29-19.46L96.51 0L83.65 1.28L90.30-32.70L100.80-33.92L99.78-27.65L99.78-27.65Q102.78-33.92 112-33.92L112-33.92L112-33.92Q116.48-33.92 118.37-32.03L118.37-32.03L118.37-32.03Q120.26-30.14 120.26-25.92L120.26-25.92L120.26-25.92Q120.26-21.95 118.21-12.67L118.21-12.67L118.21-12.67Q117.25-8.51 117.25-6.94L117.25-6.94L117.25-6.94Q117.25-5.38 118.11-4.48L118.11-4.48L118.11-4.48Q118.98-3.58 120.26-3.46L120.26-3.46L120.26-3.46Q119.62-1.28 117.41 0L117.41 0L117.41 0Q115.20 1.28 112.32 1.28ZM129.92-26.75L129.92-26.75L129.92-26.75Q132.10-29.82 135.39-31.87L135.39-31.87L135.39-31.87Q138.69-33.92 142.72-33.92L142.72-33.92L142.72-33.92Q146.75-33.92 148.67-32.64L148.67-32.64L161.22-33.92L156.86-9.34L156.86-9.34Q154.62 3.20 149.89 8.13L149.89 8.13L149.89 8.13Q145.34 12.80 136.51 12.80L136.51 12.80L136.51 12.80Q129.79 12.80 125.95 10.69L125.95 10.69L125.95 10.69Q122.11 8.58 122.11 5.06L122.11 5.06L122.11 5.06Q122.11 2.43 124.10 0.93L124.10 0.93L124.10 0.93Q126.08-0.58 129.15-0.58L129.15-0.58L129.15-0.58Q131.84-0.58 133.89 0.64L133.89 0.64L133.89 0.64Q135.10 1.28 135.68 2.18L135.68 2.18L135.68 2.18Q134.21 3.46 134.21 5.57L134.21 5.57L134.21 5.57Q134.21 8.32 136.77 8.32L136.77 8.32L136.77 8.32Q141.06 8.32 143.49-1.79L143.49-1.79L143.49-1.79Q144.19-4.54 144.77-7.30L144.77-7.30L144.77-7.30Q141.89-3.78 135.36-3.78L135.36-3.78L135.36-3.78Q130.82-3.78 128.19-5.95L128.19-5.95L128.19-5.95Q125.57-8.13 125.57-13.25L125.57-13.25L125.57-13.25Q125.57-16.45 126.66-20.06L126.66-20.06L126.66-20.06Q127.74-23.68 129.92-26.75ZM138.24-13.06L138.24-13.06L138.24-13.06Q138.24-8.70 140.48-8.70L140.48-8.70L140.48-8.70Q142.02-8.70 143.49-10.37L143.49-10.37L143.49-10.37Q144.64-11.71 145.09-13.70L145.09-13.70L148.35-30.14L148.35-30.14Q148.03-30.21 147.71-30.34L147.71-30.34L147.71-30.34Q147.07-30.59 146.24-30.59L146.24-30.59L146.24-30.59Q142.34-30.59 140.03-24.19L140.03-24.19L140.03-24.19Q138.24-19.20 138.24-13.06ZM211.46-10.69L211.46-10.69Q207.23-4.86 203.17-1.79L203.17-1.79L203.17-1.79Q199.10 1.28 194.91 1.28L194.91 1.28L194.91 1.28Q190.72 1.28 189.25 0.45L189.25 0.45L189.25-13.63L189.25-13.63Q185.60-3.90 179.07-0.13L179.07-0.13L179.07-0.13Q176.70 1.28 174.46 1.28L174.46 1.28L174.46 1.28Q170.18 1.28 168.32 0.45L168.32 0.45L168.32 0.45Q167.87-14.21 167.49-18.27L167.49-18.27L167.49-18.27Q167.10-22.34 166.78-24.83L166.78-24.83L166.78-24.83Q166.14-29.82 163.97-31.87L163.97-31.87L163.97-31.87Q166.72-33.92 170.56-33.92L170.56-33.92L170.56-33.92Q177.98-33.92 179.01-24.70L179.01-24.70L179.01-24.70Q179.26-22.53 179.26-20.22L179.26-20.22L179.26-20.22Q179.26-16.77 178.50-4.74L178.50-4.74L178.50-4.74Q180.03-5.44 181.66-7.97L181.66-7.97L181.66-7.97Q183.30-10.50 184.64-13.95L184.64-13.95L184.64-13.95Q187.65-21.95 187.65-28.86L187.65-28.86L187.65-28.86Q187.65-29.95 187.36-31.10L187.36-31.10L187.36-31.10Q187.07-32.26 186.75-32.58L186.75-32.58L186.75-32.58Q188.99-33.92 192.42-33.92L192.42-33.92L192.42-33.92Q195.84-33.92 197.47-31.58L197.47-31.58L197.47-31.58Q199.10-29.25 199.55-24.96L199.55-24.96L199.55-24.96Q200.06-19.52 200.06-16.26L200.06-16.26L200.06-16.26Q200.06-11.71 199.62-4.99L199.62-4.99L199.62-4.99Q202.82-7.30 205.44-14.85L205.44-14.85L205.44-14.85Q208.06-22.40 208.06-27.78L208.06-27.78L208.06-27.78Q208.06-30.14 207.68-31.55L207.68-31.55L207.68-31.55Q209.79-33.92 213.44-33.92L213.44-33.92L213.44-33.92Q215.68-33.92 217.31-32.70L217.31-32.70L217.31-32.70Q218.94-31.49 218.94-29.22L218.94-29.22L218.94-29.22Q218.94-26.94 218.27-24.51L218.27-24.51L218.27-24.51Q217.60-22.08 216.51-19.58L216.51-19.58L216.51-19.58Q214.40-14.59 211.46-10.69L211.46-10.69ZM236.03-3.52L236.03-3.52L236.03-3.52Q234.05 1.28 227.71 1.28L227.71 1.28L227.71 1.28Q224.45 1.28 222.40-0.96L222.40-0.96L222.40-0.96Q220.67-2.94 220.67-4.93L220.67-4.93L220.67-4.93Q220.67-10.11 223.04-20.22L223.04-20.22L225.41-32.64L238.40-33.92L234.50-13.70L234.50-13.70Q233.41-8.96 233.41-7.30L233.41-7.30L233.41-7.30Q233.41-3.65 236.03-3.52ZM226.56-41.54L226.56-41.54L226.56-41.54Q226.56-44.03 228.64-45.38L228.64-45.38L228.64-45.38Q230.72-46.72 233.73-46.72L233.73-46.72L233.73-46.72Q236.74-46.72 238.56-45.38L238.56-45.38L238.56-45.38Q240.38-44.03 240.38-41.54L240.38-41.54L240.38-41.54Q240.38-39.04 238.37-37.76L238.37-37.76L238.37-37.76Q236.35-36.48 233.34-36.48L233.34-36.48L233.34-36.48Q230.34-36.48 228.45-37.76L228.45-37.76L228.45-37.76Q226.56-39.04 226.56-41.54ZM257.98-30.34L257.98-30.34L257.98-30.34Q261.44-33.92 268.74-33.92L268.74-33.92L268.74-33.92Q272.77-33.92 274.98-31.78L274.98-31.78L274.98-31.78Q277.18-29.63 277.18-25.70L277.18-25.70L277.18-25.70Q277.18-21.76 274.98-18.98L274.98-18.98L274.98-18.98Q272.77-16.19 268.67-15.04L268.67-15.04L268.67-15.04Q268.99-13.76 269.44-12.42L269.44-12.42L270.34-9.86L270.34-9.86Q271.55-6.59 272.51-5.44L272.51-5.44L272.51-5.44Q273.47-4.29 274.75-3.90L274.75-3.90L274.75-3.90Q274.05-1.28 271.49 0.13L271.49 0.13L271.49 0.13Q269.44 1.28 266.62 1.28L266.62 1.28L266.62 1.28Q258.37 1.28 257.28-11.46L257.28-11.46L257.28-11.46Q257.09-13.25 257.09-15.04L257.09-15.04L257.09-15.04Q260.29-15.94 262.53-18.94L262.53-18.94L262.53-18.94Q264.77-21.95 264.77-25.47L264.77-25.47L264.77-25.47Q264.77-28.99 262.27-28.99L262.27-28.99L262.27-28.99Q260.48-28.99 259.07-27.01L259.07-27.01L259.07-27.01Q257.66-25.02 257.02-21.63L257.02-21.63L252.80 0L239.87 1.28L248.83-44.80L261.70-46.08L260.22-38.46L260.22-38.46Q259.26-33.09 257.98-30.34ZM295.49-3.52L295.49-3.52L295.49-3.52Q293.50 1.28 287.17 1.28L287.17 1.28L287.17 1.28Q283.90 1.28 281.86-0.96L281.86-0.96L281.86-0.96Q280.13-2.94 280.13-4.93L280.13-4.93L280.13-4.93Q280.13-10.11 282.50-20.22L282.50-20.22L284.86-32.64L297.86-33.92L293.95-13.70L293.95-13.70Q292.86-8.96 292.86-7.30L292.86-7.30L292.86-7.30Q292.86-3.65 295.49-3.52ZM286.02-41.54L286.02-41.54L286.02-41.54Q286.02-44.03 288.10-45.38L288.10-45.38L288.10-45.38Q290.18-46.72 293.18-46.72L293.18-46.72L293.18-46.72Q296.19-46.72 298.02-45.38L298.02-45.38L298.02-45.38Q299.84-44.03 299.84-41.54L299.84-41.54L299.84-41.54Q299.84-39.04 297.82-37.76L297.82-37.76L297.82-37.76Q295.81-36.48 292.80-36.48L292.80-36.48L292.80-36.48Q289.79-36.48 287.90-37.76L287.90-37.76L287.90-37.76Q286.02-39.04 286.02-41.54Z" fill="#eb6c6c"></path></g></g><style>text {
  font-size: 64px;
  font-family: Arial Black;
  dominant-baseline: central;
  text-anchor: middle;
}</style></svg>